<svg xmlns="http://www.w3.org/2000/svg" xmlns:xlink="http://www.w3.org/1999/xlink" width="117" zoomAndPan="magnify" viewBox="0 0 87.75 87.749997" height="117" preserveAspectRatio="xMidYMid meet" version="1.0"><defs><clipPath id="8069aec4b0"><path d="M 0 0 L 86.753906 0 L 86.753906 87.222656 L 0 87.222656 Z M 0 0 " clip-rule="nonzero"/></clipPath><clipPath id="607704ebe8"><path d="M 22.433594 0 L 64.648438 0 C 77.035156 0 87.078125 10.042969 87.078125 22.433594 L 87.078125 64.707031 C 87.078125 77.09375 77.035156 87.136719 64.648438 87.136719 L 22.433594 87.136719 C 10.042969 87.136719 0 77.09375 0 64.707031 L 0 22.433594 C 0 10.042969 10.042969 0 22.433594 0 Z M 22.433594 0 " clip-rule="nonzero"/></clipPath><clipPath id="860e21703e"><path d="M 17.886719 14.703125 L 69.488281 14.703125 L 69.488281 72.289062 L 17.886719 72.289062 Z M 17.886719 14.703125 " clip-rule="nonzero"/></clipPath></defs><g clip-path="url(#8069aec4b0)"><g clip-path="url(#607704ebe8)"><path stroke-linecap="butt" transform="matrix(0.747869, 0, 0, 0.747869, 0.00000165, 0.0000900536)" fill="none" stroke-linejoin="miter" d="M 29.996676 -0.000120414 L 86.443499 -0.000120414 C 103.006179 -0.000120414 116.434955 13.428656 116.434955 29.996558 L 116.434955 86.521729 C 116.434955 103.084408 103.006179 116.513184 86.443499 116.513184 L 29.996676 116.513184 C 13.428774 116.513184 -0.00000220627 103.084408 -0.00000220627 86.521729 L -0.00000220627 29.996558 C -0.00000220627 13.428656 13.428774 -0.000120414 29.996676 -0.000120414 Z M 29.996676 -0.000120414 " stroke="#ffffff" stroke-width="8" stroke-opacity="1" stroke-miterlimit="4"/></g></g><g clip-path="url(#860e21703e)"><path fill="#ffffff" d="M 67.191406 23.609375 L 65.507812 23.609375 C 65.425781 23.609375 65.265625 23.6875 65.1875 23.6875 L 65.1875 20.242188 C 65.1875 17.273438 62.78125 14.789062 59.734375 14.789062 L 27.183594 14.789062 C 24.21875 14.789062 21.734375 17.195312 21.734375 20.242188 L 21.734375 23.6875 C 21.652344 23.6875 21.492188 23.609375 21.414062 23.609375 L 19.730469 23.609375 C 18.765625 23.609375 17.886719 24.410156 17.886719 25.453125 L 17.886719 35.3125 C 17.886719 36.273438 18.6875 37.15625 19.730469 37.15625 L 21.414062 37.15625 C 21.492188 37.15625 21.652344 37.078125 21.734375 37.078125 L 21.734375 58.722656 C 21.734375 61.289062 23.496094 63.375 25.902344 64.015625 L 25.902344 70.507812 C 25.902344 71.472656 26.703125 72.351562 27.746094 72.351562 L 33.839844 72.351562 C 34.800781 72.351562 35.683594 71.550781 35.683594 70.507812 L 35.683594 64.175781 L 51.398438 64.175781 L 51.398438 70.507812 C 51.398438 71.472656 52.199219 72.351562 53.242188 72.351562 L 59.335938 72.351562 C 60.296875 72.351562 61.179688 71.550781 61.179688 70.507812 L 61.179688 64.015625 C 63.503906 63.453125 65.347656 61.289062 65.347656 58.722656 L 65.347656 37.078125 C 65.425781 37.078125 65.589844 37.15625 65.667969 37.15625 L 67.351562 37.15625 C 68.3125 37.15625 69.195312 36.355469 69.195312 35.3125 L 69.195312 25.371094 C 69.035156 24.410156 68.152344 23.609375 67.191406 23.609375 Z M 28.949219 17.515625 L 58.050781 17.515625 L 58.050781 19.199219 L 28.949219 19.199219 Z M 29.269531 60.808594 C 27.425781 60.808594 25.984375 59.363281 25.984375 57.519531 C 25.984375 55.675781 27.425781 54.234375 29.269531 54.234375 C 31.113281 54.234375 32.558594 55.675781 32.558594 57.519531 C 32.558594 59.285156 31.035156 60.808594 29.269531 60.808594 Z M 57.652344 60.808594 C 55.808594 60.808594 54.363281 59.363281 54.363281 57.519531 C 54.363281 55.675781 55.808594 54.234375 57.652344 54.234375 C 59.496094 54.234375 60.9375 55.675781 60.9375 57.519531 C 60.9375 59.285156 59.496094 60.808594 57.652344 60.808594 Z M 62.941406 48.300781 L 23.976562 48.300781 L 23.976562 22.964844 L 62.941406 22.964844 Z M 62.941406 48.300781 " fill-opacity="1" fill-rule="nonzero"/></g></svg>