<svg xmlns="http://www.w3.org/2000/svg" xmlns:xlink="http://www.w3.org/1999/xlink" width="117" zoomAndPan="magnify" viewBox="0 0 87.75 87.749997" height="117" preserveAspectRatio="xMidYMid meet" version="1.0"><defs><clipPath id="9d32fba156"><path d="M 0 0 L 86.753906 0 L 86.753906 87.222656 L 0 87.222656 Z M 0 0 " clip-rule="nonzero"/></clipPath><clipPath id="4b3971ce5c"><path d="M 22.433594 0 L 64.648438 0 C 77.035156 0 87.078125 10.042969 87.078125 22.433594 L 87.078125 64.707031 C 87.078125 77.09375 77.035156 87.136719 64.648438 87.136719 L 22.433594 87.136719 C 10.042969 87.136719 0 77.09375 0 64.707031 L 0 22.433594 C 0 10.042969 10.042969 0 22.433594 0 Z M 22.433594 0 " clip-rule="nonzero"/></clipPath><clipPath id="6c0c6e9703"><path d="M 15.734375 11.46875 L 71.074219 11.46875 L 71.074219 75.785156 L 15.734375 75.785156 Z M 15.734375 11.46875 " clip-rule="nonzero"/></clipPath></defs><g clip-path="url(#9d32fba156)"><g clip-path="url(#4b3971ce5c)"><path stroke-linecap="butt" transform="matrix(0.747869, 0, 0, 0.747869, 0.00000165, 0.0000900536)" fill="none" stroke-linejoin="miter" d="M 29.996676 -0.000120414 L 86.443499 -0.000120414 C 103.006179 -0.000120414 116.434955 13.428656 116.434955 29.996558 L 116.434955 86.521729 C 116.434955 103.084408 103.006179 116.513184 86.443499 116.513184 L 29.996676 116.513184 C 13.428774 116.513184 -0.00000220627 103.084408 -0.00000220627 86.521729 L -0.00000220627 29.996558 C -0.00000220627 13.428656 13.428774 -0.000120414 29.996676 -0.000120414 Z M 29.996676 -0.000120414 " stroke="#ffffff" stroke-width="8" stroke-opacity="1" stroke-miterlimit="4"/></g></g><g clip-path="url(#6c0c6e9703)"><path fill="#ffffff" d="M 20.003906 11.546875 C 18.25 11.546875 16.800781 12.992188 16.800781 14.75 L 16.800781 23.289062 C 16.800781 24.671875 17.699219 25.859375 18.9375 26.300781 L 18.9375 68.425781 L 16.464844 69.25 C 16.332031 69.296875 16.210938 69.363281 16.101562 69.457031 C 15.996094 69.550781 15.910156 69.660156 15.847656 69.785156 C 15.785156 69.914062 15.746094 70.046875 15.738281 70.1875 C 15.726562 70.332031 15.742188 70.46875 15.789062 70.601562 C 15.832031 70.738281 15.902344 70.859375 15.996094 70.964844 C 16.089844 71.070312 16.199219 71.15625 16.324219 71.21875 C 16.453125 71.285156 16.585938 71.320312 16.726562 71.332031 C 16.867188 71.339844 17.003906 71.324219 17.140625 71.277344 L 18.9375 70.679688 L 18.9375 74.535156 C 18.9375 74.675781 18.964844 74.8125 19.019531 74.945312 C 19.074219 75.074219 19.148438 75.191406 19.25 75.289062 C 19.351562 75.390625 19.464844 75.46875 19.597656 75.519531 C 19.726562 75.574219 19.863281 75.601562 20.003906 75.601562 C 20.148438 75.601562 20.28125 75.574219 20.414062 75.519531 C 20.542969 75.46875 20.660156 75.390625 20.761719 75.289062 C 20.859375 75.191406 20.9375 75.074219 20.992188 74.945312 C 21.046875 74.8125 21.074219 74.675781 21.074219 74.535156 L 21.074219 70.679688 L 22.871094 71.277344 C 23.003906 71.324219 23.140625 71.339844 23.285156 71.332031 C 23.425781 71.320312 23.558594 71.285156 23.6875 71.21875 C 23.8125 71.15625 23.921875 71.070312 24.015625 70.964844 C 24.109375 70.859375 24.175781 70.738281 24.222656 70.601562 C 24.265625 70.46875 24.285156 70.332031 24.273438 70.1875 C 24.261719 70.046875 24.226562 69.914062 24.164062 69.785156 C 24.101562 69.660156 24.015625 69.550781 23.90625 69.457031 C 23.800781 69.363281 23.679688 69.296875 23.546875 69.25 L 21.074219 68.425781 L 21.074219 26.300781 C 22.308594 25.859375 23.207031 24.671875 23.207031 23.289062 L 23.207031 14.75 C 23.207031 12.992188 21.761719 11.546875 20.003906 11.546875 Z M 34.953125 11.546875 C 30.828125 11.546875 27.480469 14.898438 27.480469 19.019531 L 27.480469 68.128906 C 27.480469 72.25 30.828125 75.601562 34.953125 75.601562 C 39.074219 75.601562 42.425781 72.25 42.425781 68.128906 L 42.425781 19.019531 C 42.425781 14.898438 39.074219 11.546875 34.953125 11.546875 Z M 52.035156 11.546875 C 47.910156 11.546875 44.558594 14.898438 44.558594 19.019531 L 44.558594 68.128906 C 44.558594 72.25 47.910156 75.601562 52.035156 75.601562 C 56.15625 75.601562 59.507812 72.25 59.507812 68.128906 L 59.507812 19.019531 C 59.507812 14.898438 56.15625 11.546875 52.035156 11.546875 Z M 66.980469 11.546875 C 65.222656 11.546875 63.777344 12.992188 63.777344 14.75 L 63.777344 23.289062 C 63.777344 24.671875 64.675781 25.859375 65.914062 26.300781 L 65.914062 68.425781 L 63.441406 69.25 C 63.304688 69.296875 63.183594 69.363281 63.078125 69.457031 C 62.96875 69.550781 62.886719 69.660156 62.820312 69.785156 C 62.757812 69.914062 62.722656 70.046875 62.710938 70.1875 C 62.703125 70.332031 62.71875 70.46875 62.765625 70.601562 C 62.808594 70.738281 62.878906 70.859375 62.96875 70.964844 C 63.0625 71.070312 63.171875 71.15625 63.300781 71.21875 C 63.425781 71.285156 63.558594 71.320312 63.703125 71.332031 C 63.84375 71.339844 63.980469 71.324219 64.113281 71.277344 L 65.914062 70.679688 L 65.914062 74.535156 C 65.914062 74.675781 65.941406 74.8125 65.992188 74.945312 C 66.046875 75.074219 66.125 75.191406 66.226562 75.289062 C 66.324219 75.390625 66.441406 75.46875 66.570312 75.519531 C 66.703125 75.574219 66.839844 75.601562 66.980469 75.601562 C 67.121094 75.601562 67.257812 75.574219 67.386719 75.519531 C 67.519531 75.46875 67.636719 75.390625 67.734375 75.289062 C 67.835938 75.191406 67.914062 75.074219 67.964844 74.945312 C 68.019531 74.8125 68.046875 74.675781 68.046875 74.535156 L 68.046875 70.679688 L 69.84375 71.277344 C 69.980469 71.324219 70.117188 71.339844 70.257812 71.332031 C 70.398438 71.320312 70.535156 71.285156 70.660156 71.21875 C 70.789062 71.15625 70.898438 71.070312 70.988281 70.964844 C 71.082031 70.859375 71.152344 70.738281 71.195312 70.601562 C 71.242188 70.46875 71.257812 70.332031 71.25 70.1875 C 71.238281 70.046875 71.203125 69.914062 71.136719 69.785156 C 71.074219 69.660156 70.988281 69.550781 70.882812 69.457031 C 70.777344 69.363281 70.65625 69.296875 70.519531 69.25 L 68.046875 68.425781 L 68.046875 26.300781 C 69.285156 25.859375 70.183594 24.671875 70.183594 23.289062 L 70.183594 14.75 C 70.183594 12.992188 68.734375 11.546875 66.980469 11.546875 Z M 34.953125 36.101562 C 36.707031 36.101562 38.15625 37.546875 38.15625 39.304688 L 38.15625 47.84375 C 38.15625 49.601562 36.707031 51.046875 34.953125 51.046875 C 33.195312 51.046875 31.75 49.601562 31.75 47.84375 L 31.75 39.304688 C 31.75 37.546875 33.195312 36.101562 34.953125 36.101562 Z M 52.035156 36.101562 C 53.789062 36.101562 55.238281 37.546875 55.238281 39.304688 L 55.238281 47.84375 C 55.238281 49.601562 53.789062 51.046875 52.035156 51.046875 C 50.277344 51.046875 48.832031 49.601562 48.832031 47.84375 L 48.832031 39.304688 C 48.832031 37.546875 50.277344 36.101562 52.035156 36.101562 Z M 52.035156 36.101562 " fill-opacity="1" fill-rule="nonzero"/></g></svg>