<svg xmlns="http://www.w3.org/2000/svg" xmlns:xlink="http://www.w3.org/1999/xlink" width="117" zoomAndPan="magnify" viewBox="0 0 87.75 87.749997" height="117" preserveAspectRatio="xMidYMid meet" version="1.0"><defs><clipPath id="d7e1b4138f"><path d="M 0 0 L 86.753906 0 L 86.753906 87.222656 L 0 87.222656 Z M 0 0 " clip-rule="nonzero"/></clipPath><clipPath id="a5c8dd6661"><path d="M 22.433594 0 L 64.648438 0 C 77.035156 0 87.078125 10.042969 87.078125 22.433594 L 87.078125 64.707031 C 87.078125 77.09375 77.035156 87.136719 64.648438 87.136719 L 22.433594 87.136719 C 10.042969 87.136719 0 77.09375 0 64.707031 L 0 22.433594 C 0 10.042969 10.042969 0 22.433594 0 Z M 22.433594 0 " clip-rule="nonzero"/></clipPath><clipPath id="221aa05d14"><path d="M 18.152344 14 L 71.25 14 L 71.25 68 L 18.152344 68 Z M 18.152344 14 " clip-rule="nonzero"/></clipPath><clipPath id="bbfcc3eaef"><path d="M 22 69 L 66 69 L 66 75.167969 L 22 75.167969 Z M 22 69 " clip-rule="nonzero"/></clipPath></defs><g clip-path="url(#d7e1b4138f)"><g clip-path="url(#a5c8dd6661)"><path stroke-linecap="butt" transform="matrix(0.747869, 0, 0, 0.747869, 0.00000165, 0.0000900536)" fill="none" stroke-linejoin="miter" d="M 29.996676 -0.000120414 L 86.443499 -0.000120414 C 103.006179 -0.000120414 116.434955 13.428656 116.434955 29.996558 L 116.434955 86.521729 C 116.434955 103.084408 103.006179 116.513184 86.443499 116.513184 L 29.996676 116.513184 C 13.428774 116.513184 -0.00000220627 103.084408 -0.00000220627 86.521729 L -0.00000220627 29.996558 C -0.00000220627 13.428656 13.428774 -0.000120414 29.996676 -0.000120414 Z M 29.996676 -0.000120414 " stroke="#ffffff" stroke-width="8" stroke-opacity="1" stroke-miterlimit="4"/></g></g><g clip-path="url(#221aa05d14)"><path fill="#ffffff" d="M 71.242188 15.152344 C 71.160156 14.445312 70.523438 13.941406 69.820312 14.019531 L 27.679688 18.832031 C 26.972656 18.910156 26.46875 19.550781 26.546875 20.25 C 26.625 20.957031 27.265625 21.460938 27.96875 21.382812 L 52 18.640625 C 51.867188 19.90625 51.382812 20.984375 50.53125 21.882812 C 49.910156 22.539062 49.09375 23.097656 48.082031 23.566406 C 45.433594 24.789062 43.621094 26.660156 42.664062 29.199219 C 42.449219 29.765625 42.277344 30.367188 42.148438 31 C 42.023438 31.621094 41.984375 32.253906 41.941406 32.867188 L 41.796875 32.867188 C 39.441406 32.867188 37.5 34.632812 37.214844 36.910156 C 32.546875 36.910156 28.964844 36.910156 28.914062 36.917969 C 27.5625 36.96875 26.394531 37.433594 25.539062 38.421875 C 25.53125 38.429688 25.527344 38.433594 25.523438 38.441406 C 25.382812 38.578125 25.25 38.734375 25.121094 38.898438 C 23 41.566406 21.195312 44.378906 19.957031 47.441406 C 19.945312 47.46875 19.933594 47.496094 19.921875 47.527344 C 18.738281 50.34375 18.152344 53.273438 18.171875 56.296875 C 18.148438 60.132812 19.117188 63.683594 20.75 67.019531 C 20.800781 67.121094 20.855469 67.214844 20.902344 67.316406 L 66.808594 67.316406 C 66.855469 67.214844 66.90625 67.121094 66.957031 67.019531 C 68.59375 63.679688 69.5625 60.132812 69.539062 56.296875 C 69.558594 53.273438 68.964844 50.339844 67.789062 47.527344 C 67.777344 47.5 67.765625 47.472656 67.75 47.441406 C 66.511719 44.378906 64.710938 41.566406 62.585938 38.898438 C 62.457031 38.734375 62.324219 38.582031 62.1875 38.441406 C 62.183594 38.433594 62.175781 38.429688 62.171875 38.421875 C 61.316406 37.433594 60.144531 36.96875 58.796875 36.917969 C 58.746094 36.914062 55.164062 36.910156 50.496094 36.910156 C 50.210938 34.632812 48.269531 32.867188 45.910156 32.867188 L 45.726562 32.867188 C 45.753906 31.417969 46.09375 30.199219 46.769531 29.199219 C 47.40625 28.253906 48.34375 27.5 49.582031 26.933594 C 52.09375 25.777344 53.867188 24.101562 54.894531 21.882812 C 55.378906 20.84375 55.695312 19.679688 55.851562 18.394531 C 55.859375 18.324219 55.867188 18.257812 55.875 18.195312 L 70.109375 16.570312 C 70.816406 16.492188 71.320312 15.851562 71.242188 15.152344 Z M 29.214844 61.328125 C 29.207031 61.359375 29.195312 61.386719 29.183594 61.414062 C 29.183594 61.425781 29.179688 61.429688 29.175781 61.4375 C 29.167969 61.449219 29.164062 61.464844 29.152344 61.476562 C 29.003906 61.742188 28.710938 61.859375 28.195312 61.851562 C 27.007812 61.835938 22.3125 61.839844 21.148438 61.84375 C 20.886719 61.84375 20.699219 61.789062 20.5625 61.691406 C 20.554688 61.691406 20.550781 61.683594 20.542969 61.679688 C 20.425781 61.574219 20.335938 61.445312 20.261719 61.273438 C 20.253906 61.261719 20.175781 61 20.148438 60.871094 C 19.617188 58.453125 19.496094 56.070312 19.800781 53.730469 C 19.800781 53.722656 19.800781 53.710938 19.800781 53.703125 C 20.070312 51.816406 20.605469 49.964844 21.355469 48.128906 C 21.464844 47.902344 21.738281 47.675781 22.023438 47.53125 C 22.175781 47.464844 26.398438 47.40625 28.363281 47.371094 L 28.410156 47.371094 C 28.410156 47.371094 28.417969 47.371094 28.421875 47.371094 C 29.109375 47.429688 29.285156 47.804688 29.269531 48.558594 C 29.226562 50.554688 29.257812 61.183594 29.210938 61.335938 Z M 26.921875 40.027344 C 26.828125 40.027344 26.746094 39.972656 26.707031 39.890625 C 26.65625 39.777344 26.699219 39.652344 26.800781 39.585938 C 27.382812 39.222656 27.953125 38.695312 28.542969 38.675781 C 31.609375 38.570312 34.679688 38.625 37.75 38.625 C 37.839844 38.625 37.921875 38.679688 37.960938 38.757812 C 37.976562 38.789062 37.992188 38.820312 38.007812 38.851562 C 38.058594 38.957031 38.027344 39.082031 37.933594 39.148438 C 37.445312 39.484375 36.960938 39.96875 36.460938 39.984375 C 33.28125 40.070312 30.101562 40.03125 26.921875 40.027344 Z M 59.273438 47.363281 L 59.332031 47.363281 C 61.296875 47.398438 63.261719 47.339844 65.21875 47.40625 C 65.355469 47.410156 65.511719 47.453125 65.667969 47.523438 C 65.957031 47.667969 66.226562 47.894531 66.339844 48.121094 C 67.089844 49.957031 67.625 51.8125 67.894531 53.695312 C 67.894531 53.703125 67.894531 53.714844 67.894531 53.722656 C 68.195312 56.066406 68.078125 58.445312 67.546875 60.863281 C 67.515625 60.996094 67.484375 61.113281 67.445312 61.226562 C 67.441406 61.238281 67.4375 61.253906 67.429688 61.265625 C 67.359375 61.4375 67.265625 61.570312 67.152344 61.671875 C 67.144531 61.675781 67.140625 61.679688 67.132812 61.683594 C 66.992188 61.785156 66.808594 61.835938 66.542969 61.835938 C 65.386719 61.832031 60.6875 61.828125 59.5 61.84375 C 58.984375 61.851562 58.6875 61.734375 58.542969 61.46875 C 58.535156 61.457031 58.527344 61.441406 58.519531 61.429688 C 58.515625 61.421875 58.488281 61.351562 58.480469 61.320312 C 58.429688 61.167969 58.457031 50.542969 58.417969 48.542969 C 58.402344 47.789062 58.582031 47.414062 59.269531 47.355469 Z M 49.699219 47.367188 L 49.746094 47.367188 C 50.441406 47.375 50.699219 47.640625 50.6875 48.359375 C 50.65625 50.4375 50.691406 58.816406 50.691406 60.933594 C 50.691406 61.628906 50.410156 61.847656 49.742188 61.847656 C 47.777344 61.847656 39.914062 61.847656 37.953125 61.847656 C 37.289062 61.847656 37.003906 61.628906 37.003906 60.933594 C 37.003906 58.820312 37.039062 50.4375 37.007812 48.359375 C 36.996094 47.640625 37.253906 47.375 37.949219 47.367188 C 41.867188 47.386719 45.777344 47.390625 49.695312 47.367188 Z M 49.699219 47.367188 " fill-opacity="1" fill-rule="nonzero"/></g><g clip-path="url(#bbfcc3eaef)"><path fill="#ffffff" d="M 22.410156 70.007812 C 22.542969 70.210938 22.671875 70.417969 22.808594 70.625 C 23.058594 71.011719 23.320312 71.394531 23.585938 71.777344 C 23.707031 71.945312 24.300781 72.738281 24.683594 73.246094 C 24.871094 73.496094 25.011719 73.679688 25.011719 73.683594 C 25.550781 74.410156 26.183594 74.945312 26.914062 75.285156 L 60.792969 75.285156 C 61.519531 74.941406 62.15625 74.410156 62.695312 73.683594 C 62.699219 73.679688 62.847656 73.480469 63.023438 73.246094 C 63.257812 72.9375 63.539062 72.566406 63.566406 72.53125 C 63.753906 72.285156 63.941406 72.03125 64.121094 71.777344 C 64.253906 71.585938 64.78125 70.75 65.3125 69.886719 L 22.339844 69.886719 C 22.371094 69.941406 22.398438 69.984375 22.410156 70.007812 Z M 22.410156 70.007812 " fill-opacity="1" fill-rule="nonzero"/></g></svg>