<svg xmlns="http://www.w3.org/2000/svg" xmlns:xlink="http://www.w3.org/1999/xlink" width="117" zoomAndPan="magnify" viewBox="0 0 87.75 87.749997" height="117" preserveAspectRatio="xMidYMid meet" version="1.0"><defs><clipPath id="b9f4c4bb15"><path d="M 0 0 L 86.753906 0 L 86.753906 87.222656 L 0 87.222656 Z M 0 0 " clip-rule="nonzero"/></clipPath><clipPath id="e75a9da337"><path d="M 22.433594 0 L 64.648438 0 C 77.035156 0 87.078125 10.042969 87.078125 22.433594 L 87.078125 64.707031 C 87.078125 77.09375 77.035156 87.136719 64.648438 87.136719 L 22.433594 87.136719 C 10.042969 87.136719 0 77.09375 0 64.707031 L 0 22.433594 C 0 10.042969 10.042969 0 22.433594 0 Z M 22.433594 0 " clip-rule="nonzero"/></clipPath><clipPath id="9b8bf890a7"><path d="M 18.125 13.84375 L 68.980469 13.84375 L 68.980469 73.675781 L 18.125 73.675781 Z M 18.125 13.84375 " clip-rule="nonzero"/></clipPath></defs><g clip-path="url(#b9f4c4bb15)"><g clip-path="url(#e75a9da337)"><path stroke-linecap="butt" transform="matrix(0.747869, 0, 0, 0.747869, 0.00000165, 0.0000900536)" fill="none" stroke-linejoin="miter" d="M 29.996676 -0.000120414 L 86.443499 -0.000120414 C 103.006179 -0.000120414 116.434955 13.428656 116.434955 29.996558 L 116.434955 86.521729 C 116.434955 103.084408 103.006179 116.513184 86.443499 116.513184 L 29.996676 116.513184 C 13.428774 116.513184 -0.00000220627 103.084408 -0.00000220627 86.521729 L -0.00000220627 29.996558 C -0.00000220627 13.428656 13.428774 -0.000120414 29.996676 -0.000120414 Z M 29.996676 -0.000120414 " stroke="#ffffff" stroke-width="8" stroke-opacity="1" stroke-miterlimit="4"/></g></g><g clip-path="url(#9b8bf890a7)"><path fill="#ffffff" d="M 37.015625 27.960938 C 37.015625 34.40625 34.125 39.828125 30.175781 41.515625 L 31.4375 69.316406 C 31.53125 71.492188 29.773438 73.300781 27.574219 73.300781 C 25.371094 73.300781 23.613281 71.480469 23.71875 69.316406 L 24.980469 41.515625 C 21.03125 39.828125 18.144531 34.40625 18.144531 27.960938 C 18.144531 20.160156 22.363281 13.84375 27.585938 13.84375 C 32.804688 13.84375 37.015625 20.160156 37.015625 27.960938 Z M 67.585938 13.84375 C 66.835938 13.84375 66.230469 14.4375 66.230469 15.175781 L 66.230469 26.449219 C 66.230469 27.113281 65.683594 27.648438 65.015625 27.648438 C 64.351562 27.648438 63.804688 27.113281 63.804688 26.449219 L 63.804688 15.175781 C 63.816406 14.4375 63.210938 13.84375 62.460938 13.84375 L 62.058594 13.84375 C 61.320312 13.84375 60.714844 14.4375 60.714844 15.175781 L 60.714844 26.449219 C 60.714844 27.113281 60.164062 27.648438 59.5 27.648438 C 58.835938 27.648438 58.289062 27.113281 58.289062 26.449219 L 58.289062 15.175781 C 58.289062 14.4375 57.679688 13.84375 56.929688 13.84375 L 56.527344 13.84375 C 55.777344 13.84375 55.171875 14.4375 55.171875 15.175781 L 55.171875 26.449219 C 55.171875 27.113281 54.625 27.648438 53.957031 27.648438 C 53.292969 27.648438 52.746094 27.113281 52.746094 26.449219 L 52.746094 15.175781 C 52.757812 14.4375 52.152344 13.84375 51.414062 13.84375 C 50.675781 13.84375 50.058594 14.4375 50.058594 15.175781 L 50.058594 31.824219 C 50.058594 36.117188 52.902344 39.933594 56.917969 41.085938 L 55.636719 69.316406 C 55.539062 71.492188 57.300781 73.300781 59.5 73.300781 C 61.699219 73.300781 63.460938 71.480469 63.363281 69.316406 L 62.082031 41.085938 C 66.039062 39.980469 68.941406 36.390625 68.941406 32.132812 L 68.941406 15.175781 C 68.929688 14.4375 68.335938 13.84375 67.585938 13.84375 Z M 67.585938 13.84375 " fill-opacity="1" fill-rule="nonzero"/></g></svg>