<svg xmlns="http://www.w3.org/2000/svg" xmlns:xlink="http://www.w3.org/1999/xlink" width="117" zoomAndPan="magnify" viewBox="0 0 87.75 87.749997" height="117" preserveAspectRatio="xMidYMid meet" version="1.0"><defs><clipPath id="45a929d12f"><path d="M 0 0 L 86.753906 0 L 86.753906 87.222656 L 0 87.222656 Z M 0 0 " clip-rule="nonzero"/></clipPath><clipPath id="8748361a25"><path d="M 22.433594 0 L 64.648438 0 C 77.035156 0 87.078125 10.042969 87.078125 22.433594 L 87.078125 64.707031 C 87.078125 77.09375 77.035156 87.136719 64.648438 87.136719 L 22.433594 87.136719 C 10.042969 87.136719 0 77.09375 0 64.707031 L 0 22.433594 C 0 10.042969 10.042969 0 22.433594 0 Z M 22.433594 0 " clip-rule="nonzero"/></clipPath><clipPath id="e8fcc8230e"><path d="M 20 14 L 54 14 L 54 74 L 20 74 Z M 20 14 " clip-rule="nonzero"/></clipPath><clipPath id="3b426af4fa"><path d="M 72.128906 15.867188 L 71.007812 74.191406 L 20.910156 73.230469 L 22.03125 14.90625 Z M 72.128906 15.867188 " clip-rule="nonzero"/></clipPath><clipPath id="cb4bf021bc"><path d="M 72.128906 15.867188 L 71.007812 74.191406 L 20.910156 73.230469 L 22.03125 14.90625 Z M 72.128906 15.867188 " clip-rule="nonzero"/></clipPath><clipPath id="9fed3b107d"><path d="M 55 21 L 72 21 L 72 66 L 55 66 Z M 55 21 " clip-rule="nonzero"/></clipPath><clipPath id="001aee8104"><path d="M 72.128906 15.867188 L 71.007812 74.191406 L 20.910156 73.230469 L 22.03125 14.90625 Z M 72.128906 15.867188 " clip-rule="nonzero"/></clipPath><clipPath id="8603d90235"><path d="M 72.128906 15.867188 L 71.007812 74.191406 L 20.910156 73.230469 L 22.03125 14.90625 Z M 72.128906 15.867188 " clip-rule="nonzero"/></clipPath></defs><g clip-path="url(#45a929d12f)"><g clip-path="url(#8748361a25)"><path stroke-linecap="butt" transform="matrix(0.747869, 0, 0, 0.747869, 0.00000165, 0.0000900536)" fill="none" stroke-linejoin="miter" d="M 29.996676 -0.000120414 L 86.443499 -0.000120414 C 103.006179 -0.000120414 116.434955 13.428656 116.434955 29.996558 L 116.434955 86.521729 C 116.434955 103.084408 103.006179 116.513184 86.443499 116.513184 L 29.996676 116.513184 C 13.428774 116.513184 -0.00000220627 103.084408 -0.00000220627 86.521729 L -0.00000220627 29.996558 C -0.00000220627 13.428656 13.428774 -0.000120414 29.996676 -0.000120414 Z M 29.996676 -0.000120414 " stroke="#ffffff" stroke-width="8" stroke-opacity="1" stroke-miterlimit="4"/></g></g><g clip-path="url(#e8fcc8230e)"><g clip-path="url(#3b426af4fa)"><g clip-path="url(#cb4bf021bc)"><path fill="#ffffff" d="M 21.710938 16.261719 L 20.644531 71.957031 C 20.640625 72.132812 20.671875 72.300781 20.734375 72.464844 C 20.800781 72.628906 20.890625 72.773438 21.015625 72.902344 C 21.136719 73.027344 21.277344 73.128906 21.4375 73.199219 C 21.601562 73.269531 21.769531 73.304688 21.945312 73.308594 L 31.226562 73.488281 C 31.402344 73.488281 31.574219 73.460938 31.734375 73.394531 C 31.898438 73.332031 32.046875 73.238281 32.171875 73.117188 C 32.296875 72.992188 32.398438 72.851562 32.46875 72.691406 C 32.539062 72.53125 32.574219 72.363281 32.578125 72.1875 L 32.628906 69.535156 C 32.632812 69.273438 32.664062 69.015625 32.71875 68.757812 C 32.777344 68.503906 32.855469 68.257812 32.960938 68.015625 C 33.066406 67.777344 33.191406 67.550781 33.34375 67.335938 C 33.492188 67.121094 33.660156 66.925781 33.847656 66.742188 C 34.035156 66.5625 34.242188 66.402344 34.460938 66.261719 C 34.679688 66.117188 34.914062 66 35.15625 65.90625 C 35.398438 65.808594 35.648438 65.738281 35.90625 65.691406 C 36.164062 65.648438 36.421875 65.625 36.683594 65.632812 C 36.945312 65.636719 37.203125 65.667969 37.457031 65.722656 C 37.714844 65.777344 37.960938 65.859375 38.199219 65.964844 C 38.441406 66.070312 38.667969 66.195312 38.882812 66.34375 C 39.09375 66.492188 39.292969 66.664062 39.472656 66.851562 C 39.65625 67.039062 39.816406 67.242188 39.957031 67.464844 C 40.097656 67.683594 40.214844 67.914062 40.3125 68.15625 C 40.40625 68.402344 40.476562 68.652344 40.523438 68.910156 C 40.570312 69.164062 40.589844 69.425781 40.585938 69.6875 L 40.535156 72.339844 C 40.53125 72.515625 40.5625 72.683594 40.625 72.847656 C 40.691406 73.011719 40.78125 73.15625 40.90625 73.285156 C 41.027344 73.410156 41.167969 73.507812 41.328125 73.578125 C 41.492188 73.648438 41.660156 73.6875 41.835938 73.691406 L 51.117188 73.867188 C 51.292969 73.871094 51.464844 73.839844 51.628906 73.777344 C 51.789062 73.710938 51.9375 73.621094 52.0625 73.496094 C 52.191406 73.375 52.289062 73.234375 52.359375 73.074219 C 52.429688 72.910156 52.464844 72.742188 52.46875 72.566406 L 53.539062 16.871094 C 53.539062 16.695312 53.511719 16.527344 53.445312 16.363281 C 53.382812 16.199219 53.289062 16.054688 53.167969 15.929688 C 53.046875 15.800781 52.902344 15.703125 52.742188 15.632812 C 52.582031 15.5625 52.414062 15.523438 52.238281 15.523438 L 42.953125 15.34375 C 42.777344 15.339844 42.609375 15.371094 42.445312 15.433594 C 42.28125 15.5 42.136719 15.59375 42.007812 15.714844 C 41.882812 15.835938 41.785156 15.976562 41.714844 16.136719 C 41.644531 16.300781 41.605469 16.46875 41.601562 16.644531 L 41.550781 19.296875 C 41.546875 19.558594 41.515625 19.816406 41.460938 20.070312 C 41.40625 20.324219 41.324219 20.574219 41.21875 20.8125 C 41.117188 21.050781 40.988281 21.277344 40.839844 21.492188 C 40.691406 21.707031 40.519531 21.90625 40.332031 22.085938 C 40.144531 22.269531 39.941406 22.429688 39.71875 22.570312 C 39.5 22.710938 39.269531 22.828125 39.027344 22.925781 C 38.78125 23.019531 38.53125 23.089844 38.273438 23.136719 C 38.019531 23.183594 37.757812 23.203125 37.496094 23.199219 C 37.238281 23.191406 36.976562 23.164062 36.722656 23.105469 C 36.46875 23.050781 36.21875 22.96875 35.980469 22.867188 C 35.742188 22.761719 35.515625 22.632812 35.300781 22.484375 C 35.085938 22.335938 34.886719 22.167969 34.707031 21.980469 C 34.527344 21.789062 34.363281 21.585938 34.222656 21.367188 C 34.082031 21.148438 33.964844 20.914062 33.871094 20.671875 C 33.773438 20.429688 33.703125 20.179688 33.65625 19.921875 C 33.609375 19.664062 33.589844 19.40625 33.597656 19.144531 L 33.648438 16.492188 C 33.648438 16.316406 33.621094 16.144531 33.554688 15.980469 C 33.492188 15.816406 33.398438 15.671875 33.277344 15.546875 C 33.152344 15.417969 33.011719 15.320312 32.851562 15.25 C 32.691406 15.179688 32.523438 15.144531 32.347656 15.140625 L 23.0625 14.960938 C 22.886719 14.957031 22.71875 14.988281 22.554688 15.054688 C 22.390625 15.117188 22.246094 15.210938 22.117188 15.332031 C 21.992188 15.453125 21.894531 15.597656 21.824219 15.757812 C 21.753906 15.917969 21.714844 16.085938 21.710938 16.261719 Z M 46.167969 55.203125 C 46.34375 55.203125 46.515625 55.242188 46.675781 55.3125 C 46.835938 55.382812 46.976562 55.480469 47.101562 55.609375 C 47.222656 55.734375 47.316406 55.878906 47.378906 56.042969 C 47.441406 56.207031 47.472656 56.378906 47.46875 56.554688 C 47.46875 56.730469 47.429688 56.898438 47.359375 57.058594 C 47.289062 57.21875 47.191406 57.359375 47.0625 57.484375 C 46.9375 57.605469 46.792969 57.699219 46.628906 57.761719 C 46.464844 57.828125 46.292969 57.855469 46.117188 57.855469 L 43.464844 57.800781 C 43.289062 57.800781 43.121094 57.761719 42.960938 57.691406 C 42.800781 57.621094 42.660156 57.523438 42.535156 57.394531 C 42.414062 57.269531 42.320312 57.125 42.257812 56.960938 C 42.191406 56.796875 42.164062 56.628906 42.164062 56.449219 C 42.167969 56.273438 42.207031 56.105469 42.277344 55.945312 C 42.347656 55.785156 42.445312 55.644531 42.574219 55.519531 C 42.699219 55.398438 42.84375 55.304688 43.007812 55.242188 C 43.171875 55.175781 43.339844 55.148438 43.515625 55.152344 Z M 38.214844 55.046875 C 38.390625 55.050781 38.558594 55.089844 38.71875 55.160156 C 38.878906 55.230469 39.023438 55.328125 39.144531 55.457031 C 39.265625 55.582031 39.359375 55.726562 39.421875 55.890625 C 39.488281 56.054688 39.515625 56.222656 39.515625 56.398438 C 39.511719 56.574219 39.472656 56.746094 39.402344 56.90625 C 39.332031 57.066406 39.234375 57.207031 39.109375 57.332031 C 38.980469 57.453125 38.835938 57.546875 38.671875 57.609375 C 38.507812 57.675781 38.339844 57.703125 38.164062 57.699219 L 35.511719 57.648438 C 35.335938 57.648438 35.164062 57.609375 35.003906 57.539062 C 34.84375 57.46875 34.703125 57.371094 34.578125 57.242188 C 34.457031 57.117188 34.363281 56.972656 34.300781 56.808594 C 34.238281 56.644531 34.207031 56.472656 34.210938 56.296875 C 34.214844 56.121094 34.25 55.953125 34.320312 55.792969 C 34.390625 55.632812 34.488281 55.492188 34.617188 55.367188 C 34.742188 55.246094 34.886719 55.152344 35.050781 55.089844 C 35.214844 55.023438 35.386719 54.996094 35.5625 54.996094 Z M 30.257812 54.894531 C 30.433594 54.898438 30.601562 54.9375 30.761719 55.007812 C 30.921875 55.078125 31.066406 55.175781 31.1875 55.300781 C 31.308594 55.429688 31.402344 55.574219 31.464844 55.738281 C 31.53125 55.902344 31.5625 56.070312 31.558594 56.246094 C 31.554688 56.421875 31.515625 56.59375 31.445312 56.753906 C 31.375 56.914062 31.277344 57.054688 31.152344 57.179688 C 31.023438 57.300781 30.878906 57.394531 30.714844 57.457031 C 30.550781 57.519531 30.382812 57.550781 30.207031 57.546875 L 27.554688 57.496094 C 27.378906 57.492188 27.210938 57.457031 27.046875 57.386719 C 26.886719 57.316406 26.746094 57.21875 26.625 57.089844 C 26.5 56.964844 26.410156 56.820312 26.34375 56.65625 C 26.28125 56.492188 26.25 56.320312 26.253906 56.144531 C 26.257812 55.96875 26.292969 55.800781 26.363281 55.640625 C 26.433594 55.480469 26.53125 55.335938 26.660156 55.214844 C 26.785156 55.09375 26.933594 55 27.09375 54.9375 C 27.257812 54.871094 27.429688 54.84375 27.605469 54.84375 Z M 45.277344 32.632812 L 44.96875 48.546875 C 44.96875 48.722656 44.929688 48.890625 44.859375 49.050781 C 44.789062 49.210938 44.691406 49.355469 44.5625 49.476562 C 44.4375 49.597656 44.292969 49.691406 44.128906 49.753906 C 43.964844 49.820312 43.796875 49.851562 43.621094 49.847656 C 43.441406 49.84375 43.273438 49.804688 43.113281 49.734375 C 42.953125 49.664062 42.8125 49.566406 42.6875 49.441406 C 42.566406 49.3125 42.472656 49.167969 42.410156 49.003906 C 42.34375 48.839844 42.316406 48.671875 42.320312 48.496094 L 42.625 32.582031 C 42.628906 32.40625 42.664062 32.238281 42.734375 32.078125 C 42.804688 31.914062 42.902344 31.773438 43.03125 31.652344 C 43.15625 31.53125 43.300781 31.4375 43.464844 31.371094 C 43.628906 31.308594 43.800781 31.277344 43.976562 31.28125 C 44.152344 31.285156 44.320312 31.320312 44.480469 31.390625 C 44.640625 31.460938 44.785156 31.5625 44.90625 31.6875 C 45.027344 31.816406 45.121094 31.960938 45.183594 32.125 C 45.25 32.289062 45.277344 32.457031 45.277344 32.632812 Z M 38.644531 32.503906 L 38.339844 48.417969 C 38.335938 48.59375 38.300781 48.761719 38.230469 48.925781 C 38.160156 49.085938 38.0625 49.226562 37.933594 49.347656 C 37.808594 49.46875 37.660156 49.5625 37.5 49.628906 C 37.335938 49.691406 37.164062 49.722656 36.988281 49.71875 C 36.8125 49.714844 36.644531 49.679688 36.484375 49.609375 C 36.320312 49.539062 36.179688 49.441406 36.058594 49.3125 C 35.9375 49.1875 35.84375 49.039062 35.78125 48.878906 C 35.714844 48.714844 35.683594 48.542969 35.6875 48.367188 L 35.992188 32.453125 C 35.996094 32.277344 36.035156 32.109375 36.105469 31.949219 C 36.175781 31.789062 36.273438 31.648438 36.398438 31.523438 C 36.527344 31.402344 36.671875 31.308594 36.835938 31.246094 C 37 31.179688 37.167969 31.152344 37.34375 31.15625 C 37.519531 31.15625 37.6875 31.195312 37.851562 31.265625 C 38.011719 31.335938 38.152344 31.433594 38.273438 31.5625 C 38.398438 31.6875 38.492188 31.832031 38.554688 31.996094 C 38.617188 32.160156 38.648438 32.328125 38.644531 32.503906 Z M 32.015625 32.378906 L 31.710938 48.292969 C 31.707031 48.46875 31.667969 48.636719 31.597656 48.796875 C 31.527344 48.957031 31.429688 49.097656 31.304688 49.222656 C 31.175781 49.34375 31.03125 49.4375 30.867188 49.5 C 30.703125 49.566406 30.535156 49.59375 30.359375 49.59375 C 30.183594 49.589844 30.015625 49.550781 29.851562 49.480469 C 29.691406 49.410156 29.550781 49.3125 29.429688 49.1875 C 29.304688 49.058594 29.214844 48.914062 29.148438 48.75 C 29.085938 48.585938 29.054688 48.417969 29.058594 48.242188 L 29.363281 32.328125 C 29.367188 32.152344 29.402344 31.984375 29.472656 31.824219 C 29.542969 31.660156 29.644531 31.519531 29.769531 31.398438 C 29.894531 31.277344 30.042969 31.183594 30.207031 31.117188 C 30.367188 31.054688 30.539062 31.023438 30.714844 31.027344 C 30.890625 31.03125 31.058594 31.066406 31.21875 31.136719 C 31.382812 31.207031 31.523438 31.308594 31.644531 31.433594 C 31.765625 31.558594 31.859375 31.707031 31.925781 31.871094 C 31.988281 32.03125 32.019531 32.203125 32.015625 32.378906 Z M 32.015625 32.378906 " fill-opacity="1" fill-rule="nonzero"/></g></g></g><g clip-path="url(#9fed3b107d)"><g clip-path="url(#001aee8104)"><g clip-path="url(#8603d90235)"><path fill="#ffffff" d="M 71.121094 25.488281 L 62.609375 21.796875 C 62.273438 21.636719 61.933594 21.628906 61.589844 21.777344 C 61.25 21.910156 61.003906 22.144531 60.859375 22.480469 L 59.804688 24.953125 C 59.640625 25.316406 59.425781 25.648438 59.164062 25.945312 C 58.898438 26.246094 58.597656 26.5 58.257812 26.710938 C 57.917969 26.917969 57.554688 27.074219 57.167969 27.171875 C 56.78125 27.273438 56.390625 27.3125 55.992188 27.292969 L 55.261719 65.3125 L 71.804688 27.238281 C 71.875 27.078125 71.914062 26.910156 71.917969 26.730469 C 71.921875 26.554688 71.890625 26.386719 71.828125 26.222656 C 71.761719 26.058594 71.667969 25.910156 71.546875 25.785156 C 71.425781 25.65625 71.28125 25.558594 71.121094 25.488281 Z M 71.121094 25.488281 " fill-opacity="1" fill-rule="nonzero"/></g></g></g></svg>