<svg xmlns="http://www.w3.org/2000/svg" xmlns:xlink="http://www.w3.org/1999/xlink" width="350" zoomAndPan="magnify" viewBox="0 0 262.5 76.499998" height="102" preserveAspectRatio="xMidYMid meet" version="1.0"><defs><g/><clipPath id="0d3c0831d2"><path d="M 144.183594 13.902344 L 146.566406 13.902344 L 146.566406 50.457031 L 144.183594 50.457031 Z M 144.183594 13.902344 " clip-rule="nonzero"/></clipPath></defs><g clip-path="url(#0d3c0831d2)"><path fill="#ffffff" d="M 144.183594 13.902344 L 146.566406 13.902344 L 146.566406 50.460938 L 144.183594 50.460938 Z M 144.183594 13.902344 " fill-opacity="1" fill-rule="nonzero"/></g><g fill="#ffffff" fill-opacity="1"><g transform="translate(82.225819, 65.763258)"><g><path d="M 3.953125 -5.6875 C 4.503906 -5.6875 4.992188 -5.566406 5.421875 -5.328125 C 5.859375 -5.085938 6.195312 -4.75 6.4375 -4.3125 C 6.6875 -3.882812 6.8125 -3.382812 6.8125 -2.8125 C 6.8125 -2.25 6.6875 -1.75 6.4375 -1.3125 C 6.195312 -0.875 5.859375 -0.535156 5.421875 -0.296875 C 4.992188 -0.0546875 4.503906 0.0625 3.953125 0.0625 C 3.535156 0.0625 3.148438 -0.015625 2.796875 -0.171875 C 2.453125 -0.335938 2.171875 -0.578125 1.953125 -0.890625 L 1.953125 0 L 0.96875 0 L 0.96875 -7.890625 L 1.984375 -7.890625 L 1.984375 -4.78125 C 2.210938 -5.082031 2.5 -5.304688 2.84375 -5.453125 C 3.1875 -5.609375 3.554688 -5.6875 3.953125 -5.6875 Z M 3.875 -0.828125 C 4.238281 -0.828125 4.5625 -0.910156 4.84375 -1.078125 C 5.132812 -1.242188 5.363281 -1.476562 5.53125 -1.78125 C 5.695312 -2.082031 5.78125 -2.425781 5.78125 -2.8125 C 5.78125 -3.207031 5.695312 -3.554688 5.53125 -3.859375 C 5.363281 -4.160156 5.132812 -4.390625 4.84375 -4.546875 C 4.5625 -4.710938 4.238281 -4.796875 3.875 -4.796875 C 3.519531 -4.796875 3.195312 -4.710938 2.90625 -4.546875 C 2.613281 -4.390625 2.382812 -4.160156 2.21875 -3.859375 C 2.0625 -3.554688 1.984375 -3.207031 1.984375 -2.8125 C 1.984375 -2.425781 2.0625 -2.082031 2.21875 -1.78125 C 2.382812 -1.476562 2.613281 -1.242188 2.90625 -1.078125 C 3.195312 -0.910156 3.519531 -0.828125 3.875 -0.828125 Z M 3.875 -0.828125 "/></g></g></g><g fill="#ffffff" fill-opacity="1"><g transform="translate(89.975669, 65.763258)"><g><path d="M 5.953125 -5.640625 L 3.21875 0.5625 C 2.976562 1.132812 2.695312 1.535156 2.375 1.765625 C 2.050781 2.003906 1.664062 2.125 1.21875 2.125 C 0.9375 2.125 0.664062 2.078125 0.40625 1.984375 C 0.144531 1.898438 -0.0664062 1.773438 -0.234375 1.609375 L 0.203125 0.84375 C 0.492188 1.113281 0.832031 1.25 1.21875 1.25 C 1.457031 1.25 1.660156 1.179688 1.828125 1.046875 C 1.992188 0.921875 2.144531 0.703125 2.28125 0.390625 L 2.46875 -0.015625 L -0.015625 -5.640625 L 1.046875 -5.640625 L 3.015625 -1.125 L 4.953125 -5.640625 Z M 5.953125 -5.640625 "/></g></g></g><g fill="#ffffff" fill-opacity="1"><g transform="translate(96.416168, 65.763258)"><g/></g></g><g fill="#ffffff" fill-opacity="1"><g transform="translate(99.769584, 65.763258)"><g><path d="M 4.015625 -7.453125 C 4.984375 -7.453125 5.742188 -7.21875 6.296875 -6.75 C 6.847656 -6.289062 7.125 -5.660156 7.125 -4.859375 C 7.125 -4.046875 6.847656 -3.40625 6.296875 -2.9375 C 5.742188 -2.476562 4.984375 -2.25 4.015625 -2.25 L 2.1875 -2.25 L 2.1875 0 L 1.125 0 L 1.125 -7.453125 Z M 3.984375 -3.1875 C 4.660156 -3.1875 5.175781 -3.328125 5.53125 -3.609375 C 5.882812 -3.898438 6.0625 -4.316406 6.0625 -4.859375 C 6.0625 -5.390625 5.882812 -5.796875 5.53125 -6.078125 C 5.175781 -6.367188 4.660156 -6.515625 3.984375 -6.515625 L 2.1875 -6.515625 L 2.1875 -3.1875 Z M 3.984375 -3.1875 "/></g></g></g><g fill="#ffffff" fill-opacity="1"><g transform="translate(107.945237, 65.763258)"><g><path d="M 6.0625 -2.78125 C 6.0625 -2.707031 6.054688 -2.609375 6.046875 -2.484375 L 1.46875 -2.484375 C 1.53125 -1.984375 1.75 -1.582031 2.125 -1.28125 C 2.5 -0.976562 2.960938 -0.828125 3.515625 -0.828125 C 4.179688 -0.828125 4.722656 -1.054688 5.140625 -1.515625 L 5.703125 -0.84375 C 5.441406 -0.550781 5.125 -0.328125 4.75 -0.171875 C 4.375 -0.015625 3.953125 0.0625 3.484375 0.0625 C 2.878906 0.0625 2.347656 -0.0546875 1.890625 -0.296875 C 1.429688 -0.546875 1.078125 -0.890625 0.828125 -1.328125 C 0.578125 -1.765625 0.453125 -2.257812 0.453125 -2.8125 C 0.453125 -3.363281 0.570312 -3.859375 0.8125 -4.296875 C 1.0625 -4.734375 1.398438 -5.070312 1.828125 -5.3125 C 2.253906 -5.5625 2.738281 -5.6875 3.28125 -5.6875 C 3.820312 -5.6875 4.300781 -5.5625 4.71875 -5.3125 C 5.144531 -5.070312 5.472656 -4.734375 5.703125 -4.296875 C 5.941406 -3.859375 6.0625 -3.351562 6.0625 -2.78125 Z M 3.28125 -4.828125 C 2.789062 -4.828125 2.378906 -4.675781 2.046875 -4.375 C 1.710938 -4.082031 1.519531 -3.695312 1.46875 -3.21875 L 5.09375 -3.21875 C 5.03125 -3.6875 4.832031 -4.070312 4.5 -4.375 C 4.175781 -4.675781 3.769531 -4.828125 3.28125 -4.828125 Z M 3.28125 -4.828125 "/></g></g></g><g fill="#ffffff" fill-opacity="1"><g transform="translate(114.949925, 65.763258)"><g><path d="M 0.25 2.125 C 0 2.125 -0.226562 2.09375 -0.4375 2.03125 C -0.65625 1.976562 -0.835938 1.894531 -0.984375 1.78125 L -0.65625 1 C -0.4375 1.175781 -0.15625 1.265625 0.1875 1.265625 C 0.445312 1.265625 0.648438 1.179688 0.796875 1.015625 C 0.941406 0.847656 1.015625 0.601562 1.015625 0.28125 L 1.015625 -5.640625 L 2.046875 -5.640625 L 2.046875 0.25 C 2.046875 0.832031 1.890625 1.289062 1.578125 1.625 C 1.265625 1.957031 0.820312 2.125 0.25 2.125 Z M 1.53125 -6.71875 C 1.332031 -6.71875 1.164062 -6.78125 1.03125 -6.90625 C 0.894531 -7.039062 0.828125 -7.203125 0.828125 -7.390625 C 0.828125 -7.566406 0.894531 -7.722656 1.03125 -7.859375 C 1.164062 -7.992188 1.332031 -8.0625 1.53125 -8.0625 C 1.726562 -8.0625 1.890625 -8 2.015625 -7.875 C 2.148438 -7.75 2.21875 -7.59375 2.21875 -7.40625 C 2.21875 -7.21875 2.148438 -7.054688 2.015625 -6.921875 C 1.890625 -6.785156 1.726562 -6.71875 1.53125 -6.71875 Z M 1.53125 -6.71875 "/></g></g></g><g fill="#ffffff" fill-opacity="1"><g transform="translate(118.463017, 65.763258)"><g><path d="M 6.21875 -5.640625 L 6.21875 0 L 5.25 0 L 5.25 -0.84375 C 5.050781 -0.5625 4.78125 -0.335938 4.4375 -0.171875 C 4.101562 -0.015625 3.738281 0.0625 3.34375 0.0625 C 2.59375 0.0625 2 -0.144531 1.5625 -0.5625 C 1.132812 -0.976562 0.921875 -1.585938 0.921875 -2.390625 L 0.921875 -5.640625 L 1.9375 -5.640625 L 1.9375 -2.515625 C 1.9375 -1.960938 2.066406 -1.546875 2.328125 -1.265625 C 2.585938 -0.984375 2.960938 -0.84375 3.453125 -0.84375 C 3.992188 -0.84375 4.421875 -1.003906 4.734375 -1.328125 C 5.046875 -1.660156 5.203125 -2.125 5.203125 -2.71875 L 5.203125 -5.640625 Z M 6.21875 -5.640625 "/></g></g></g><g fill="#ffffff" fill-opacity="1"><g transform="translate(126.159639, 65.763258)"><g><path d="M 3.015625 -5.6875 C 3.796875 -5.6875 4.394531 -5.492188 4.8125 -5.109375 C 5.226562 -4.734375 5.4375 -4.164062 5.4375 -3.40625 L 5.4375 0 L 4.46875 0 L 4.46875 -0.75 C 4.300781 -0.476562 4.054688 -0.273438 3.734375 -0.140625 C 3.421875 -0.00390625 3.050781 0.0625 2.625 0.0625 C 1.988281 0.0625 1.476562 -0.0859375 1.09375 -0.390625 C 0.71875 -0.691406 0.53125 -1.09375 0.53125 -1.59375 C 0.53125 -2.09375 0.710938 -2.492188 1.078125 -2.796875 C 1.441406 -3.097656 2.015625 -3.25 2.796875 -3.25 L 4.421875 -3.25 L 4.421875 -3.453125 C 4.421875 -3.890625 4.289062 -4.222656 4.03125 -4.453125 C 3.78125 -4.691406 3.40625 -4.8125 2.90625 -4.8125 C 2.570312 -4.8125 2.242188 -4.753906 1.921875 -4.640625 C 1.609375 -4.535156 1.34375 -4.390625 1.125 -4.203125 L 0.6875 -4.96875 C 0.976562 -5.195312 1.328125 -5.375 1.734375 -5.5 C 2.140625 -5.625 2.566406 -5.6875 3.015625 -5.6875 Z M 2.78125 -0.71875 C 3.175781 -0.71875 3.515625 -0.804688 3.796875 -0.984375 C 4.078125 -1.160156 4.285156 -1.40625 4.421875 -1.71875 L 4.421875 -2.515625 L 2.84375 -2.515625 C 1.976562 -2.515625 1.546875 -2.222656 1.546875 -1.640625 C 1.546875 -1.359375 1.65625 -1.132812 1.875 -0.96875 C 2.09375 -0.800781 2.394531 -0.71875 2.78125 -0.71875 Z M 2.78125 -0.71875 "/></g></g></g><g fill="#ffffff" fill-opacity="1"><g transform="translate(133.015298, 65.763258)"><g><path d="M 3.984375 -5.6875 C 4.691406 -5.6875 5.257812 -5.476562 5.6875 -5.0625 C 6.113281 -4.65625 6.328125 -4.050781 6.328125 -3.25 L 6.328125 0 L 5.296875 0 L 5.296875 -3.125 C 5.296875 -3.675781 5.164062 -4.085938 4.90625 -4.359375 C 4.644531 -4.640625 4.269531 -4.78125 3.78125 -4.78125 C 3.226562 -4.78125 2.789062 -4.617188 2.46875 -4.296875 C 2.144531 -3.972656 1.984375 -3.507812 1.984375 -2.90625 L 1.984375 0 L 0.96875 0 L 0.96875 -5.640625 L 1.953125 -5.640625 L 1.953125 -4.78125 C 2.148438 -5.070312 2.425781 -5.296875 2.78125 -5.453125 C 3.132812 -5.609375 3.535156 -5.6875 3.984375 -5.6875 Z M 3.984375 -5.6875 "/></g></g></g><g fill="#ffffff" fill-opacity="1"><g transform="translate(140.754498, 65.763258)"><g><path d="M 6.359375 -5.640625 L 6.359375 -0.765625 C 6.359375 0.222656 6.113281 0.953125 5.625 1.421875 C 5.132812 1.890625 4.40625 2.125 3.4375 2.125 C 2.90625 2.125 2.394531 2.050781 1.90625 1.90625 C 1.425781 1.757812 1.039062 1.550781 0.75 1.28125 L 1.234375 0.5 C 1.492188 0.726562 1.816406 0.90625 2.203125 1.03125 C 2.585938 1.164062 2.988281 1.234375 3.40625 1.234375 C 4.0625 1.234375 4.546875 1.078125 4.859375 0.765625 C 5.179688 0.453125 5.34375 -0.0195312 5.34375 -0.65625 L 5.34375 -1.109375 C 5.101562 -0.816406 4.804688 -0.597656 4.453125 -0.453125 C 4.097656 -0.304688 3.71875 -0.234375 3.3125 -0.234375 C 2.769531 -0.234375 2.28125 -0.347656 1.84375 -0.578125 C 1.40625 -0.804688 1.0625 -1.128906 0.8125 -1.546875 C 0.570312 -1.960938 0.453125 -2.4375 0.453125 -2.96875 C 0.453125 -3.5 0.570312 -3.972656 0.8125 -4.390625 C 1.0625 -4.804688 1.40625 -5.125 1.84375 -5.34375 C 2.28125 -5.570312 2.769531 -5.6875 3.3125 -5.6875 C 3.738281 -5.6875 4.132812 -5.609375 4.5 -5.453125 C 4.863281 -5.296875 5.160156 -5.066406 5.390625 -4.765625 L 5.390625 -5.640625 Z M 3.421875 -1.125 C 3.796875 -1.125 4.128906 -1.203125 4.421875 -1.359375 C 4.710938 -1.515625 4.941406 -1.734375 5.109375 -2.015625 C 5.273438 -2.296875 5.359375 -2.613281 5.359375 -2.96875 C 5.359375 -3.507812 5.175781 -3.945312 4.8125 -4.28125 C 4.457031 -4.625 3.992188 -4.796875 3.421875 -4.796875 C 2.847656 -4.796875 2.378906 -4.625 2.015625 -4.28125 C 1.660156 -3.945312 1.484375 -3.507812 1.484375 -2.96875 C 1.484375 -2.613281 1.566406 -2.296875 1.734375 -2.015625 C 1.898438 -1.734375 2.128906 -1.515625 2.421875 -1.359375 C 2.710938 -1.203125 3.046875 -1.125 3.421875 -1.125 Z M 3.421875 -1.125 "/></g></g></g><g fill="#ffffff" fill-opacity="1"><g transform="translate(148.589508, 65.763258)"><g><path d="M 3.15625 -2.625 L 1.984375 -1.546875 L 1.984375 0 L 0.96875 0 L 0.96875 -7.890625 L 1.984375 -7.890625 L 1.984375 -2.828125 L 5.0625 -5.640625 L 6.296875 -5.640625 L 3.921875 -3.3125 L 6.53125 0 L 5.28125 0 Z M 3.15625 -2.625 "/></g></g></g><g fill="#ffffff" fill-opacity="1"><g transform="translate(155.636777, 65.763258)"><g><path d="M 3.390625 0.0625 C 2.828125 0.0625 2.320312 -0.0625 1.875 -0.3125 C 1.425781 -0.5625 1.078125 -0.898438 0.828125 -1.328125 C 0.578125 -1.765625 0.453125 -2.257812 0.453125 -2.8125 C 0.453125 -3.375 0.578125 -3.867188 0.828125 -4.296875 C 1.078125 -4.734375 1.425781 -5.070312 1.875 -5.3125 C 2.320312 -5.5625 2.828125 -5.6875 3.390625 -5.6875 C 3.941406 -5.6875 4.4375 -5.5625 4.875 -5.3125 C 5.320312 -5.070312 5.671875 -4.734375 5.921875 -4.296875 C 6.179688 -3.867188 6.3125 -3.375 6.3125 -2.8125 C 6.3125 -2.257812 6.179688 -1.765625 5.921875 -1.328125 C 5.671875 -0.898438 5.320312 -0.5625 4.875 -0.3125 C 4.4375 -0.0625 3.941406 0.0625 3.390625 0.0625 Z M 3.390625 -0.828125 C 3.742188 -0.828125 4.0625 -0.910156 4.34375 -1.078125 C 4.632812 -1.242188 4.863281 -1.476562 5.03125 -1.78125 C 5.195312 -2.082031 5.28125 -2.425781 5.28125 -2.8125 C 5.28125 -3.207031 5.195312 -3.554688 5.03125 -3.859375 C 4.863281 -4.160156 4.632812 -4.390625 4.34375 -4.546875 C 4.0625 -4.710938 3.742188 -4.796875 3.390625 -4.796875 C 3.023438 -4.796875 2.695312 -4.710938 2.40625 -4.546875 C 2.125 -4.390625 1.898438 -4.160156 1.734375 -3.859375 C 1.566406 -3.554688 1.484375 -3.207031 1.484375 -2.8125 C 1.484375 -2.425781 1.566406 -2.082031 1.734375 -1.78125 C 1.898438 -1.476562 2.125 -1.242188 2.40625 -1.078125 C 2.695312 -0.910156 3.023438 -0.828125 3.390625 -0.828125 Z M 3.390625 -0.828125 "/></g></g></g><g fill="#ffffff" fill-opacity="1"><g transform="translate(162.886304, 65.763258)"><g><path d="M 1.953125 -4.6875 C 2.128906 -5.019531 2.390625 -5.269531 2.734375 -5.4375 C 3.078125 -5.601562 3.5 -5.6875 4 -5.6875 L 4 -4.703125 C 3.945312 -4.710938 3.867188 -4.71875 3.765625 -4.71875 C 3.210938 -4.71875 2.773438 -4.550781 2.453125 -4.21875 C 2.140625 -3.882812 1.984375 -3.414062 1.984375 -2.8125 L 1.984375 0 L 0.96875 0 L 0.96875 -5.640625 L 1.953125 -5.640625 Z M 1.953125 -4.6875 "/></g></g></g><g fill="#ffffff" fill-opacity="1"><g transform="translate(167.740687, 65.763258)"><g><path d="M 6.0625 -2.78125 C 6.0625 -2.707031 6.054688 -2.609375 6.046875 -2.484375 L 1.46875 -2.484375 C 1.53125 -1.984375 1.75 -1.582031 2.125 -1.28125 C 2.5 -0.976562 2.960938 -0.828125 3.515625 -0.828125 C 4.179688 -0.828125 4.722656 -1.054688 5.140625 -1.515625 L 5.703125 -0.84375 C 5.441406 -0.550781 5.125 -0.328125 4.75 -0.171875 C 4.375 -0.015625 3.953125 0.0625 3.484375 0.0625 C 2.878906 0.0625 2.347656 -0.0546875 1.890625 -0.296875 C 1.429688 -0.546875 1.078125 -0.890625 0.828125 -1.328125 C 0.578125 -1.765625 0.453125 -2.257812 0.453125 -2.8125 C 0.453125 -3.363281 0.570312 -3.859375 0.8125 -4.296875 C 1.0625 -4.734375 1.398438 -5.070312 1.828125 -5.3125 C 2.253906 -5.5625 2.738281 -5.6875 3.28125 -5.6875 C 3.820312 -5.6875 4.300781 -5.5625 4.71875 -5.3125 C 5.144531 -5.070312 5.472656 -4.734375 5.703125 -4.296875 C 5.941406 -3.859375 6.0625 -3.351562 6.0625 -2.78125 Z M 3.28125 -4.828125 C 2.789062 -4.828125 2.378906 -4.675781 2.046875 -4.375 C 1.710938 -4.082031 1.519531 -3.695312 1.46875 -3.21875 L 5.09375 -3.21875 C 5.03125 -3.6875 4.832031 -4.070312 4.5 -4.375 C 4.175781 -4.675781 3.769531 -4.828125 3.28125 -4.828125 Z M 3.28125 -4.828125 "/></g></g></g><g fill="#ffffff" fill-opacity="1"><g transform="translate(174.745381, 65.763258)"><g><path d="M 3.015625 -5.6875 C 3.796875 -5.6875 4.394531 -5.492188 4.8125 -5.109375 C 5.226562 -4.734375 5.4375 -4.164062 5.4375 -3.40625 L 5.4375 0 L 4.46875 0 L 4.46875 -0.75 C 4.300781 -0.476562 4.054688 -0.273438 3.734375 -0.140625 C 3.421875 -0.00390625 3.050781 0.0625 2.625 0.0625 C 1.988281 0.0625 1.476562 -0.0859375 1.09375 -0.390625 C 0.71875 -0.691406 0.53125 -1.09375 0.53125 -1.59375 C 0.53125 -2.09375 0.710938 -2.492188 1.078125 -2.796875 C 1.441406 -3.097656 2.015625 -3.25 2.796875 -3.25 L 4.421875 -3.25 L 4.421875 -3.453125 C 4.421875 -3.890625 4.289062 -4.222656 4.03125 -4.453125 C 3.78125 -4.691406 3.40625 -4.8125 2.90625 -4.8125 C 2.570312 -4.8125 2.242188 -4.753906 1.921875 -4.640625 C 1.609375 -4.535156 1.34375 -4.390625 1.125 -4.203125 L 0.6875 -4.96875 C 0.976562 -5.195312 1.328125 -5.375 1.734375 -5.5 C 2.140625 -5.625 2.566406 -5.6875 3.015625 -5.6875 Z M 2.78125 -0.71875 C 3.175781 -0.71875 3.515625 -0.804688 3.796875 -0.984375 C 4.078125 -1.160156 4.285156 -1.40625 4.421875 -1.71875 L 4.421875 -2.515625 L 2.84375 -2.515625 C 1.976562 -2.515625 1.546875 -2.222656 1.546875 -1.640625 C 1.546875 -1.359375 1.65625 -1.132812 1.875 -0.96875 C 2.09375 -0.800781 2.394531 -0.71875 2.78125 -0.71875 Z M 2.78125 -0.71875 "/></g></g></g><g fill="#ffffff" fill-opacity="1"><g transform="translate(181.60104, 65.763258)"><g><path d="M 1.21875 0.0625 C 1.019531 0.0625 0.847656 -0.00390625 0.703125 -0.140625 C 0.554688 -0.273438 0.484375 -0.453125 0.484375 -0.671875 C 0.484375 -0.878906 0.554688 -1.050781 0.703125 -1.1875 C 0.847656 -1.320312 1.019531 -1.390625 1.21875 -1.390625 C 1.414062 -1.390625 1.582031 -1.320312 1.71875 -1.1875 C 1.851562 -1.050781 1.921875 -0.878906 1.921875 -0.671875 C 1.921875 -0.453125 1.847656 -0.273438 1.703125 -0.140625 C 1.566406 -0.00390625 1.40625 0.0625 1.21875 0.0625 Z M 1.21875 0.0625 "/></g></g></g><g fill="#ffffff" fill-opacity="1"><g transform="translate(11.955608, 48.607538)"><g><path d="M 9.953125 0 L 3.125 0 L 3.125 -32.828125 L 14.328125 -32.828125 C 16.347656 -32.828125 18.195312 -32.453125 19.875 -31.703125 C 21.550781 -30.953125 23 -29.953125 24.21875 -28.703125 C 25.4375 -27.453125 26.378906 -26.039062 27.046875 -24.46875 C 27.722656 -22.90625 28.0625 -21.285156 28.0625 -19.609375 C 28.0625 -16.816406 27.453125 -14.3125 26.234375 -12.09375 C 25.015625 -9.875 23.335938 -8.132812 21.203125 -6.875 C 19.078125 -5.613281 16.632812 -4.984375 13.875 -4.984375 L 9.953125 -4.984375 Z M 9.953125 -11.1875 L 13.703125 -11.1875 C 15.285156 -11.1875 16.628906 -11.53125 17.734375 -12.21875 C 18.835938 -12.914062 19.664062 -13.847656 20.21875 -15.015625 C 20.78125 -16.191406 21.0625 -17.488281 21.0625 -18.90625 C 21.0625 -20.195312 20.789062 -21.425781 20.25 -22.59375 C 19.707031 -23.769531 18.921875 -24.738281 17.890625 -25.5 C 16.859375 -26.269531 15.59375 -26.65625 14.09375 -26.65625 L 9.953125 -26.65625 Z M 9.953125 -11.1875 "/></g></g></g><g fill="#ffffff" fill-opacity="1"><g transform="translate(41.342748, 48.607538)"><g><path d="M 14.1875 -32.828125 L 26.796875 -32.828125 L 26.796875 -14.671875 C 26.796875 -12.617188 26.492188 -10.671875 25.890625 -8.828125 C 25.285156 -6.992188 24.390625 -5.367188 23.203125 -3.953125 C 22.015625 -2.546875 20.519531 -1.4375 18.71875 -0.625 C 16.925781 0.175781 14.859375 0.578125 12.515625 0.578125 C 9.191406 0.578125 6.3125 -0.269531 3.875 -1.96875 C 1.4375 -3.675781 -0.207031 -6.351562 -1.0625 -10 L 5.203125 -11.890625 C 5.523438 -10.578125 5.984375 -9.519531 6.578125 -8.71875 C 7.179688 -7.925781 7.84375 -7.335938 8.5625 -6.953125 C 9.289062 -6.578125 10.003906 -6.320312 10.703125 -6.1875 C 11.410156 -6.0625 12.03125 -6 12.5625 -6 C 14.226562 -6 15.613281 -6.414062 16.71875 -7.25 C 17.820312 -8.082031 18.644531 -9.164062 19.1875 -10.5 C 19.726562 -11.84375 20 -13.234375 20 -14.671875 L 20 -26.65625 L 14.1875 -26.65625 Z M 14.1875 -32.828125 "/></g></g></g><g fill="#ffffff" fill-opacity="1"><g transform="translate(70.950182, 48.607538)"><g><path d="M 9.953125 -32.828125 L 9.953125 -17.3125 L 25.46875 -32.828125 L 34.59375 -32.828125 L 18.46875 -16.703125 L 35.125 0 L 25.90625 0 L 13.609375 -12.34375 L 9.953125 -8.6875 L 9.953125 0 L 3.125 0 L 3.125 -32.828125 Z M 9.953125 -32.828125 "/></g></g></g><g fill="#ffffff" fill-opacity="1"><g transform="translate(105.800591, 48.607538)"><g><path d="M 13.390625 -5.6875 L 9.953125 -5.6875 L 9.953125 0 L 3.125 0 L 3.125 -32.828125 L 14.546875 -32.828125 C 16.484375 -32.828125 18.273438 -32.492188 19.921875 -31.828125 C 21.566406 -31.171875 23.003906 -30.25 24.234375 -29.0625 C 25.460938 -27.875 26.421875 -26.5 27.109375 -24.9375 C 27.804688 -23.382812 28.15625 -21.710938 28.15625 -19.921875 C 28.15625 -16.984375 27.492188 -14.457031 26.171875 -12.34375 C 24.847656 -10.226562 23.039062 -8.640625 20.75 -7.578125 L 27.84375 0 L 18.765625 0 Z M 9.953125 -11.859375 L 12.78125 -11.859375 C 15.476562 -11.859375 17.546875 -12.503906 18.984375 -13.796875 C 20.429688 -15.085938 21.15625 -16.953125 21.15625 -19.390625 C 21.15625 -20.742188 20.890625 -21.960938 20.359375 -23.046875 C 19.828125 -24.128906 19.039062 -25 18 -25.65625 C 16.957031 -26.320312 15.65625 -26.65625 14.09375 -26.65625 L 9.953125 -26.65625 Z M 9.953125 -11.859375 "/></g></g></g><g fill="#ffffff" fill-opacity="1"><g transform="translate(154.784299, 29.191456)"><g><path d="M 26.265625 -16.109375 L 20.984375 0 L 16.984375 0 L 13.4375 -10.90625 L 9.78125 0 L 5.796875 0 L 0.5 -16.109375 L 4.375 -16.109375 L 8.015625 -4.78125 L 11.8125 -16.109375 L 15.265625 -16.109375 L 18.9375 -4.6875 L 22.6875 -16.109375 Z M 26.265625 -16.109375 "/></g></g></g><g fill="#ffffff" fill-opacity="1"><g transform="translate(181.553858, 29.191456)"><g><path d="M 1.90625 -16.109375 L 5.640625 -16.109375 L 5.640625 0 L 1.90625 0 Z M 1.90625 -16.109375 "/></g></g></g><g fill="#ffffff" fill-opacity="1"><g transform="translate(189.103657, 29.191456)"><g><path d="M 16.6875 -16.109375 L 16.6875 0 L 13.625 0 L 5.59375 -9.78125 L 5.59375 0 L 1.90625 0 L 1.90625 -16.109375 L 5 -16.109375 L 13 -6.328125 L 13 -16.109375 Z M 16.6875 -16.109375 "/></g></g></g><g fill="#ffffff" fill-opacity="1"><g transform="translate(207.70194, 29.191456)"><g><path d="M 5.25 -13.078125 L 0.09375 -13.078125 L 0.09375 -16.109375 L 14.125 -16.109375 L 14.125 -13.078125 L 8.96875 -13.078125 L 8.96875 0 L 5.25 0 Z M 5.25 -13.078125 "/></g></g></g><g fill="#ffffff" fill-opacity="1"><g transform="translate(221.926863, 29.191456)"><g><path d="M 14.390625 -2.984375 L 14.390625 0 L 1.90625 0 L 1.90625 -16.109375 L 14.078125 -16.109375 L 14.078125 -13.125 L 5.609375 -13.125 L 5.609375 -9.625 L 13.09375 -9.625 L 13.09375 -6.71875 L 5.609375 -6.71875 L 5.609375 -2.984375 Z M 14.390625 -2.984375 "/></g></g></g><g fill="#ffffff" fill-opacity="1"><g transform="translate(237.371726, 29.191456)"><g><path d="M 12.171875 0 L 9.0625 -4.484375 L 5.640625 -4.484375 L 5.640625 0 L 1.90625 0 L 1.90625 -16.109375 L 8.890625 -16.109375 C 10.316406 -16.109375 11.550781 -15.867188 12.59375 -15.390625 C 13.644531 -14.921875 14.453125 -14.25 15.015625 -13.375 C 15.585938 -12.5 15.875 -11.460938 15.875 -10.265625 C 15.875 -9.066406 15.585938 -8.035156 15.015625 -7.171875 C 14.441406 -6.304688 13.625 -5.640625 12.5625 -5.171875 L 16.1875 0 Z M 12.109375 -10.265625 C 12.109375 -11.171875 11.816406 -11.863281 11.234375 -12.34375 C 10.648438 -12.832031 9.796875 -13.078125 8.671875 -13.078125 L 5.640625 -13.078125 L 5.640625 -7.453125 L 8.671875 -7.453125 C 9.796875 -7.453125 10.648438 -7.695312 11.234375 -8.1875 C 11.816406 -8.6875 12.109375 -9.378906 12.109375 -10.265625 Z M 12.109375 -10.265625 "/></g></g></g><g fill="#ffffff" fill-opacity="1"><g transform="translate(156.143469, 50.440157)"><g><path d="M 7.203125 0.28125 C 5.929688 0.28125 4.695312 0.109375 3.5 -0.234375 C 2.3125 -0.585938 1.359375 -1.039062 0.640625 -1.59375 L 1.90625 -4.390625 C 2.601562 -3.890625 3.425781 -3.484375 4.375 -3.171875 C 5.320312 -2.867188 6.273438 -2.71875 7.234375 -2.71875 C 8.285156 -2.71875 9.0625 -2.875 9.5625 -3.1875 C 10.070312 -3.5 10.328125 -3.914062 10.328125 -4.4375 C 10.328125 -4.820312 10.175781 -5.140625 9.875 -5.390625 C 9.582031 -5.648438 9.203125 -5.851562 8.734375 -6 C 8.265625 -6.15625 7.628906 -6.328125 6.828125 -6.515625 C 5.609375 -6.804688 4.601562 -7.097656 3.8125 -7.390625 C 3.03125 -7.679688 2.359375 -8.148438 1.796875 -8.796875 C 1.242188 -9.441406 0.96875 -10.300781 0.96875 -11.375 C 0.96875 -12.3125 1.21875 -13.15625 1.71875 -13.90625 C 2.226562 -14.664062 2.992188 -15.269531 4.015625 -15.71875 C 5.035156 -16.164062 6.28125 -16.390625 7.75 -16.390625 C 8.78125 -16.390625 9.785156 -16.265625 10.765625 -16.015625 C 11.753906 -15.773438 12.613281 -15.421875 13.34375 -14.953125 L 12.203125 -12.125 C 10.710938 -12.96875 9.222656 -13.390625 7.734375 -13.390625 C 6.691406 -13.390625 5.921875 -13.21875 5.421875 -12.875 C 4.921875 -12.539062 4.671875 -12.097656 4.671875 -11.546875 C 4.671875 -10.992188 4.957031 -10.582031 5.53125 -10.3125 C 6.101562 -10.050781 6.984375 -9.789062 8.171875 -9.53125 C 9.398438 -9.238281 10.40625 -8.945312 11.1875 -8.65625 C 11.96875 -8.363281 12.640625 -7.898438 13.203125 -7.265625 C 13.765625 -6.640625 14.046875 -5.789062 14.046875 -4.71875 C 14.046875 -3.800781 13.785156 -2.960938 13.265625 -2.203125 C 12.753906 -1.441406 11.984375 -0.835938 10.953125 -0.390625 C 9.921875 0.0546875 8.671875 0.28125 7.203125 0.28125 Z M 7.203125 0.28125 "/></g></g></g><g fill="#ffffff" fill-opacity="1"><g transform="translate(170.828748, 50.440157)"><g><path d="M 8.890625 -16.109375 C 10.316406 -16.109375 11.550781 -15.867188 12.59375 -15.390625 C 13.644531 -14.921875 14.453125 -14.25 15.015625 -13.375 C 15.585938 -12.5 15.875 -11.460938 15.875 -10.265625 C 15.875 -9.085938 15.585938 -8.054688 15.015625 -7.171875 C 14.453125 -6.285156 13.644531 -5.609375 12.59375 -5.140625 C 11.550781 -4.671875 10.316406 -4.4375 8.890625 -4.4375 L 5.640625 -4.4375 L 5.640625 0 L 1.90625 0 L 1.90625 -16.109375 Z M 8.671875 -7.484375 C 9.796875 -7.484375 10.648438 -7.722656 11.234375 -8.203125 C 11.816406 -8.691406 12.109375 -9.378906 12.109375 -10.265625 C 12.109375 -11.171875 11.816406 -11.863281 11.234375 -12.34375 C 10.648438 -12.832031 9.796875 -13.078125 8.671875 -13.078125 L 5.640625 -13.078125 L 5.640625 -7.484375 Z M 8.671875 -7.484375 "/></g></g></g><g fill="#ffffff" fill-opacity="1"><g transform="translate(187.677691, 50.440157)"><g><path d="M 9.71875 0.28125 C 8.039062 0.28125 6.53125 -0.078125 5.1875 -0.796875 C 3.84375 -1.523438 2.789062 -2.519531 2.03125 -3.78125 C 1.269531 -5.050781 0.890625 -6.476562 0.890625 -8.0625 C 0.890625 -9.632812 1.269531 -11.050781 2.03125 -12.3125 C 2.789062 -13.582031 3.84375 -14.578125 5.1875 -15.296875 C 6.53125 -16.023438 8.039062 -16.390625 9.71875 -16.390625 C 11.382812 -16.390625 12.882812 -16.023438 14.21875 -15.296875 C 15.550781 -14.578125 16.601562 -13.582031 17.375 -12.3125 C 18.144531 -11.050781 18.53125 -9.632812 18.53125 -8.0625 C 18.53125 -6.476562 18.144531 -5.050781 17.375 -3.78125 C 16.601562 -2.519531 15.550781 -1.523438 14.21875 -0.796875 C 12.882812 -0.078125 11.382812 0.28125 9.71875 0.28125 Z M 9.71875 -2.90625 C 10.664062 -2.90625 11.519531 -3.125 12.28125 -3.5625 C 13.050781 -4 13.65625 -4.609375 14.09375 -5.390625 C 14.53125 -6.171875 14.75 -7.0625 14.75 -8.0625 C 14.75 -9.050781 14.53125 -9.9375 14.09375 -10.71875 C 13.65625 -11.507812 13.050781 -12.125 12.28125 -12.5625 C 11.519531 -13 10.664062 -13.21875 9.71875 -13.21875 C 8.757812 -13.21875 7.894531 -13 7.125 -12.5625 C 6.363281 -12.125 5.765625 -11.507812 5.328125 -10.71875 C 4.890625 -9.9375 4.671875 -9.050781 4.671875 -8.0625 C 4.671875 -7.0625 4.890625 -6.171875 5.328125 -5.390625 C 5.765625 -4.609375 6.363281 -4 7.125 -3.5625 C 7.894531 -3.125 8.757812 -2.90625 9.71875 -2.90625 Z M 9.71875 -2.90625 "/></g></g></g><g fill="#ffffff" fill-opacity="1"><g transform="translate(207.104613, 50.440157)"><g><path d="M 12.171875 0 L 9.0625 -4.484375 L 5.640625 -4.484375 L 5.640625 0 L 1.90625 0 L 1.90625 -16.109375 L 8.890625 -16.109375 C 10.316406 -16.109375 11.550781 -15.867188 12.59375 -15.390625 C 13.644531 -14.921875 14.453125 -14.25 15.015625 -13.375 C 15.585938 -12.5 15.875 -11.460938 15.875 -10.265625 C 15.875 -9.066406 15.585938 -8.035156 15.015625 -7.171875 C 14.441406 -6.304688 13.625 -5.640625 12.5625 -5.171875 L 16.1875 0 Z M 12.109375 -10.265625 C 12.109375 -11.171875 11.816406 -11.863281 11.234375 -12.34375 C 10.648438 -12.832031 9.796875 -13.078125 8.671875 -13.078125 L 5.640625 -13.078125 L 5.640625 -7.453125 L 8.671875 -7.453125 C 9.796875 -7.453125 10.648438 -7.695312 11.234375 -8.1875 C 11.816406 -8.6875 12.109375 -9.378906 12.109375 -10.265625 Z M 12.109375 -10.265625 "/></g></g></g><g fill="#ffffff" fill-opacity="1"><g transform="translate(224.022607, 50.440157)"><g><path d="M 5.25 -13.078125 L 0.09375 -13.078125 L 0.09375 -16.109375 L 14.125 -16.109375 L 14.125 -13.078125 L 8.96875 -13.078125 L 8.96875 0 L 5.25 0 Z M 5.25 -13.078125 "/></g></g></g><g fill="#ffffff" fill-opacity="1"><g transform="translate(238.24753, 50.440157)"><g><path d="M 7.203125 0.28125 C 5.929688 0.28125 4.695312 0.109375 3.5 -0.234375 C 2.3125 -0.585938 1.359375 -1.039062 0.640625 -1.59375 L 1.90625 -4.390625 C 2.601562 -3.890625 3.425781 -3.484375 4.375 -3.171875 C 5.320312 -2.867188 6.273438 -2.71875 7.234375 -2.71875 C 8.285156 -2.71875 9.0625 -2.875 9.5625 -3.1875 C 10.070312 -3.5 10.328125 -3.914062 10.328125 -4.4375 C 10.328125 -4.820312 10.175781 -5.140625 9.875 -5.390625 C 9.582031 -5.648438 9.203125 -5.851562 8.734375 -6 C 8.265625 -6.15625 7.628906 -6.328125 6.828125 -6.515625 C 5.609375 -6.804688 4.601562 -7.097656 3.8125 -7.390625 C 3.03125 -7.679688 2.359375 -8.148438 1.796875 -8.796875 C 1.242188 -9.441406 0.96875 -10.300781 0.96875 -11.375 C 0.96875 -12.3125 1.21875 -13.15625 1.71875 -13.90625 C 2.226562 -14.664062 2.992188 -15.269531 4.015625 -15.71875 C 5.035156 -16.164062 6.28125 -16.390625 7.75 -16.390625 C 8.78125 -16.390625 9.785156 -16.265625 10.765625 -16.015625 C 11.753906 -15.773438 12.613281 -15.421875 13.34375 -14.953125 L 12.203125 -12.125 C 10.710938 -12.96875 9.222656 -13.390625 7.734375 -13.390625 C 6.691406 -13.390625 5.921875 -13.21875 5.421875 -12.875 C 4.921875 -12.539062 4.671875 -12.097656 4.671875 -11.546875 C 4.671875 -10.992188 4.957031 -10.582031 5.53125 -10.3125 C 6.101562 -10.050781 6.984375 -9.789062 8.171875 -9.53125 C 9.398438 -9.238281 10.40625 -8.945312 11.1875 -8.65625 C 11.96875 -8.363281 12.640625 -7.898438 13.203125 -7.265625 C 13.765625 -6.640625 14.046875 -5.789062 14.046875 -4.71875 C 14.046875 -3.800781 13.785156 -2.960938 13.265625 -2.203125 C 12.753906 -1.441406 11.984375 -0.835938 10.953125 -0.390625 C 9.921875 0.0546875 8.671875 0.28125 7.203125 0.28125 Z M 7.203125 0.28125 "/></g></g></g></svg>