<svg xmlns="http://www.w3.org/2000/svg" xmlns:xlink="http://www.w3.org/1999/xlink" width="862" zoomAndPan="magnify" viewBox="0 0 646.5 311.25" height="415" preserveAspectRatio="xMidYMid meet" version="1.0"><defs><filter x="0%" y="0%" width="100%" height="100%" id="a74fedf968"><feColorMatrix values="0 0 0 0 1 0 0 0 0 1 0 0 0 0 1 0 0 0 1 0" color-interpolation-filters="sRGB"/></filter><clipPath id="c2aa7d6aff"><path d="M 1 0 L 645 0 L 645 310.5 L 1 310.5 Z M 1 0 " clip-rule="nonzero"/></clipPath><mask id="d44e189e86"><g filter="url(#a74fedf968)"><rect x="-64.65" width="775.8" fill="#000000" y="-31.125" height="373.499999" fill-opacity="0.3"/></g></mask><clipPath id="9067a22383"><path d="M 1.707031 1.308594 L 331.660156 1.308594 L 331.660156 293.105469 L 1.707031 293.105469 Z M 1.707031 1.308594 " clip-rule="nonzero"/></clipPath><clipPath id="aa61193281"><rect x="0" width="333" y="0" height="294"/></clipPath></defs><g clip-path="url(#c2aa7d6aff)"><path fill="#31aab2" d="M 603.953125 155.148438 C 603.953125 132.566406 622.261719 114.253906 644.847656 114.253906 L 644.847656 98.539062 C 640.210938 98.539062 636.453125 94.777344 636.453125 90.144531 C 636.453125 85.511719 640.210938 81.753906 644.847656 81.753906 L 644.847656 66.039062 C 640.210938 66.039062 636.453125 62.28125 636.453125 57.644531 C 636.453125 53.011719 640.210938 49.253906 644.847656 49.253906 L 644.847656 33.535156 C 640.210938 33.535156 636.453125 29.777344 636.453125 25.144531 C 636.453125 20.511719 640.210938 16.753906 644.847656 16.753906 L 644.847656 -0.0234375 L 1.132812 -0.0234375 L 1.132812 16.757812 C 5.765625 16.757812 9.523438 20.515625 9.523438 25.148438 C 9.523438 29.785156 5.765625 33.542969 1.132812 33.542969 L 1.132812 49.257812 C 5.765625 49.257812 9.523438 53.015625 9.523438 57.648438 C 9.523438 62.285156 5.765625 66.042969 1.132812 66.042969 L 1.132812 81.757812 C 5.765625 81.757812 9.523438 85.515625 9.523438 90.148438 C 9.523438 94.785156 5.765625 98.539062 1.132812 98.539062 L 1.132812 114.257812 C 23.714844 114.257812 42.019531 132.566406 42.019531 155.144531 C 42.019531 177.679688 23.789062 195.949219 1.269531 196.027344 C 1.222656 196.027344 1.179688 196.042969 1.132812 196.042969 L 1.132812 211.757812 C 5.765625 211.757812 9.523438 215.515625 9.523438 220.148438 C 9.523438 224.785156 5.765625 228.542969 1.132812 228.542969 L 1.132812 244.257812 C 5.765625 244.257812 9.523438 248.015625 9.523438 252.648438 C 9.523438 257.28125 5.765625 261.039062 1.132812 261.039062 L 1.132812 276.757812 C 5.765625 276.757812 9.523438 280.515625 9.523438 285.148438 C 9.523438 289.78125 5.765625 293.539062 1.132812 293.539062 L 1.132812 310.316406 L 644.847656 310.316406 L 644.847656 293.535156 C 640.210938 293.535156 636.453125 289.78125 636.453125 285.144531 C 636.453125 280.511719 640.210938 276.757812 644.847656 276.757812 L 644.847656 261.035156 C 640.210938 261.035156 636.453125 257.277344 636.453125 252.644531 C 636.453125 248.011719 640.210938 244.253906 644.847656 244.253906 L 644.847656 228.535156 C 640.210938 228.535156 636.453125 224.777344 636.453125 220.144531 C 636.453125 215.511719 640.210938 211.753906 644.847656 211.753906 L 644.847656 196.042969 C 622.261719 196.042969 603.953125 177.734375 603.953125 155.148438 " fill-opacity="1" fill-rule="nonzero"/></g><g mask="url(#d44e189e86)"><g transform="matrix(1, 0, 0, 1, 297, 7)"><g clip-path="url(#aa61193281)"><g clip-path="url(#9067a22383)"><path fill="#ffffff" d="M 226.652344 542.113281 L 226.652344 455.449219 L 184.761719 487.671875 L 162.882812 459.175781 L 226.652344 410.128906 L 226.652344 301.242188 L 132.371094 355.683594 L 121.726562 435.4375 L 86.109375 430.679688 L 93.078125 378.34375 L 17.972656 421.652344 L 0.0195312 390.558594 L 75.121094 347.199219 L 26.261719 327.039062 L 40 293.835938 L 114.367188 324.539062 L 208.699219 270.097656 L 114.367188 215.652344 L 40 246.355469 L 26.261719 213.152344 L 75.121094 192.992188 L 0.0195312 149.636719 L 17.972656 118.539062 L 93.078125 161.898438 L 86.109375 109.515625 L 121.726562 104.757812 L 132.371094 184.558594 L 226.652344 239 L 226.652344 130.113281 L 162.882812 81.066406 L 184.761719 52.570312 L 226.652344 84.792969 L 226.652344 -1.921875 L 262.613281 -1.921875 L 262.613281 84.792969 L 304.457031 52.570312 L 326.382812 81.066406 L 262.613281 130.113281 L 262.613281 239 L 356.894531 184.558594 L 367.492188 104.757812 L 403.105469 109.515625 L 396.140625 161.898438 L 471.242188 118.539062 L 489.199219 149.636719 L 414.144531 192.992188 L 462.953125 213.152344 L 449.265625 246.355469 L 374.898438 215.652344 L 280.566406 270.097656 L 374.898438 324.539062 L 449.265625 293.835938 L 462.953125 327.039062 L 414.144531 347.199219 L 489.199219 390.558594 L 471.242188 421.652344 L 396.140625 378.34375 L 403.105469 430.679688 L 367.492188 435.4375 L 356.894531 355.683594 L 262.613281 301.242188 L 262.613281 410.128906 L 326.382812 459.175781 L 304.457031 487.671875 L 262.613281 455.449219 L 262.613281 542.113281 Z M 226.652344 542.113281 " fill-opacity="1" fill-rule="nonzero"/></g></g></g></g></svg>